<svg width="385" height="292" viewBox="0 0 385 292" fill="none" xmlns="http://www.w3.org/2000/svg">
<mask id="path-1-outside-1_102_57" maskUnits="userSpaceOnUse" x="54" y="219" width="282" height="51" fill="black">
<rect fill="white" x="54" y="219" width="282" height="51"/>
<path d="M87.3047 222C88.0339 222 88.7109 222.234 89.3359 222.703C89.9609 223.172 90.3776 223.745 90.5859 224.422L101.445 259.656L112.148 224.344C112.617 222.781 113.607 222 115.117 222C115.951 222 116.628 222.26 117.148 222.781C117.669 223.25 117.93 223.771 117.93 224.344C117.93 224.917 117.852 225.438 117.695 225.906L105.195 264.422C104.518 266.349 103.242 267.312 101.367 267.312C100.534 267.312 99.7526 267.052 99.0234 266.531C98.3464 266.01 97.8776 265.307 97.6172 264.422L87.3047 231.844L76.9922 264.422C76.7318 265.255 76.237 265.958 75.5078 266.531C74.8307 267.052 74.0755 267.312 73.2422 267.312C71.4193 267.312 70.1432 266.349 69.4141 264.422L56.9141 225.906C56.8099 225.438 56.7578 224.917 56.7578 224.344C56.7578 223.771 56.9922 223.25 57.4609 222.781C57.9818 222.26 58.6328 222 59.4141 222C60.9766 222 61.9661 222.781 62.3828 224.344L73.1641 259.656L83.9453 224.422C84.1536 223.693 84.5703 223.12 85.1953 222.703C85.8724 222.234 86.5755 222 87.3047 222ZM152.383 261.219C153.216 261.219 153.893 261.505 154.414 262.078C154.987 262.599 155.273 263.276 155.273 264.109C155.273 264.891 154.987 265.568 154.414 266.141C153.893 266.714 153.216 267 152.383 267H129.648C128.503 267 127.539 266.609 126.758 265.828C125.977 265.047 125.586 264.083 125.586 262.938V224.969C125.586 224.188 125.872 223.51 126.445 222.938C127.018 222.312 127.695 222 128.477 222C129.258 222 129.935 222.286 130.508 222.859C131.133 223.432 131.445 224.135 131.445 224.969V261.219H152.383ZM165.977 228.094C170.039 223.823 175.456 221.688 182.227 221.688C188.997 221.688 194.414 223.823 198.477 228.094C202.435 232.312 204.492 237.833 204.648 244.656C204.492 251.427 202.435 256.948 198.477 261.219C194.414 265.49 188.997 267.625 182.227 267.625C175.456 267.625 170.039 265.49 165.977 261.219C161.914 256.948 159.831 251.427 159.727 244.656C159.831 237.885 161.914 232.365 165.977 228.094ZM182.227 262.156C187.435 262.156 191.523 260.49 194.492 257.156C197.409 253.927 198.867 249.76 198.867 244.656C198.867 239.552 197.409 235.385 194.492 232.156C191.471 228.771 187.383 227.104 182.227 227.156C177.018 227.156 172.904 228.823 169.883 232.156C166.966 235.385 165.534 239.552 165.586 244.656C165.586 249.76 167.018 253.927 169.883 257.156C172.904 260.49 177.018 262.156 182.227 262.156ZM231.758 222.312C237.695 222.312 242.148 223.849 245.117 226.922C247.565 229.37 248.815 232.573 248.867 236.531C248.867 240.438 247.617 243.641 245.117 246.141C242.096 249.214 237.643 250.75 231.758 250.75H220.117V264.422C220.117 265.203 219.831 265.88 219.258 266.453C218.685 267.026 217.982 267.312 217.148 267.312C216.367 267.312 215.69 267.026 215.117 266.453C214.544 265.88 214.258 265.203 214.258 264.422V225.281C214.258 224.5 214.544 223.823 215.117 223.25C215.69 222.625 216.367 222.312 217.148 222.312H231.758ZM231.211 245.281C235.586 245.281 238.763 244.344 240.742 242.469C242.305 241.01 243.06 239.031 243.008 236.531C243.008 232.573 241.029 229.943 237.07 228.641C235.508 228.12 233.555 227.833 231.211 227.781H220.117V245.281H231.211ZM274.57 222.312C280.508 222.312 284.961 223.849 287.93 226.922C290.378 229.37 291.628 232.573 291.68 236.531C291.68 240.438 290.43 243.641 287.93 246.141C284.909 249.214 280.456 250.75 274.57 250.75H262.93V264.422C262.93 265.203 262.643 265.88 262.07 266.453C261.497 267.026 260.794 267.312 259.961 267.312C259.18 267.312 258.503 267.026 257.93 266.453C257.357 265.88 257.07 265.203 257.07 264.422V225.281C257.07 224.5 257.357 223.823 257.93 223.25C258.503 222.625 259.18 222.312 259.961 222.312H274.57ZM274.023 245.281C278.398 245.281 281.576 244.344 283.555 242.469C285.117 241.01 285.872 239.031 285.82 236.531C285.82 232.573 283.841 229.943 279.883 228.641C278.32 228.12 276.367 227.833 274.023 227.781H262.93V245.281H274.023ZM327.773 223.484C328.398 222.495 329.18 222 330.117 222C331.107 222 331.862 222.286 332.383 222.859C332.904 223.432 333.164 224.083 333.164 224.812C333.164 225.542 332.982 226.167 332.617 226.688L317.305 248.094V264.422C317.305 265.203 317.018 265.88 316.445 266.453C315.872 267.026 315.195 267.312 314.414 267.312C313.633 267.312 312.93 267.026 312.305 266.453C311.732 265.88 311.445 265.203 311.445 264.422V248.094L296.133 226.688C295.82 226.167 295.664 225.542 295.664 224.812C295.664 224.083 295.898 223.432 296.367 222.859C296.888 222.286 297.617 222 298.555 222C299.544 222 300.378 222.495 301.055 223.484L314.414 242.938L327.773 223.484Z"/>
</mask>
<path d="M87.3047 222C88.0339 222 88.7109 222.234 89.3359 222.703C89.9609 223.172 90.3776 223.745 90.5859 224.422L101.445 259.656L112.148 224.344C112.617 222.781 113.607 222 115.117 222C115.951 222 116.628 222.26 117.148 222.781C117.669 223.25 117.93 223.771 117.93 224.344C117.93 224.917 117.852 225.438 117.695 225.906L105.195 264.422C104.518 266.349 103.242 267.312 101.367 267.312C100.534 267.312 99.7526 267.052 99.0234 266.531C98.3464 266.01 97.8776 265.307 97.6172 264.422L87.3047 231.844L76.9922 264.422C76.7318 265.255 76.237 265.958 75.5078 266.531C74.8307 267.052 74.0755 267.312 73.2422 267.312C71.4193 267.312 70.1432 266.349 69.4141 264.422L56.9141 225.906C56.8099 225.438 56.7578 224.917 56.7578 224.344C56.7578 223.771 56.9922 223.25 57.4609 222.781C57.9818 222.26 58.6328 222 59.4141 222C60.9766 222 61.9661 222.781 62.3828 224.344L73.1641 259.656L83.9453 224.422C84.1536 223.693 84.5703 223.12 85.1953 222.703C85.8724 222.234 86.5755 222 87.3047 222ZM152.383 261.219C153.216 261.219 153.893 261.505 154.414 262.078C154.987 262.599 155.273 263.276 155.273 264.109C155.273 264.891 154.987 265.568 154.414 266.141C153.893 266.714 153.216 267 152.383 267H129.648C128.503 267 127.539 266.609 126.758 265.828C125.977 265.047 125.586 264.083 125.586 262.938V224.969C125.586 224.188 125.872 223.51 126.445 222.938C127.018 222.312 127.695 222 128.477 222C129.258 222 129.935 222.286 130.508 222.859C131.133 223.432 131.445 224.135 131.445 224.969V261.219H152.383ZM165.977 228.094C170.039 223.823 175.456 221.688 182.227 221.688C188.997 221.688 194.414 223.823 198.477 228.094C202.435 232.312 204.492 237.833 204.648 244.656C204.492 251.427 202.435 256.948 198.477 261.219C194.414 265.49 188.997 267.625 182.227 267.625C175.456 267.625 170.039 265.49 165.977 261.219C161.914 256.948 159.831 251.427 159.727 244.656C159.831 237.885 161.914 232.365 165.977 228.094ZM182.227 262.156C187.435 262.156 191.523 260.49 194.492 257.156C197.409 253.927 198.867 249.76 198.867 244.656C198.867 239.552 197.409 235.385 194.492 232.156C191.471 228.771 187.383 227.104 182.227 227.156C177.018 227.156 172.904 228.823 169.883 232.156C166.966 235.385 165.534 239.552 165.586 244.656C165.586 249.76 167.018 253.927 169.883 257.156C172.904 260.49 177.018 262.156 182.227 262.156ZM231.758 222.312C237.695 222.312 242.148 223.849 245.117 226.922C247.565 229.37 248.815 232.573 248.867 236.531C248.867 240.438 247.617 243.641 245.117 246.141C242.096 249.214 237.643 250.75 231.758 250.75H220.117V264.422C220.117 265.203 219.831 265.88 219.258 266.453C218.685 267.026 217.982 267.312 217.148 267.312C216.367 267.312 215.69 267.026 215.117 266.453C214.544 265.88 214.258 265.203 214.258 264.422V225.281C214.258 224.5 214.544 223.823 215.117 223.25C215.69 222.625 216.367 222.312 217.148 222.312H231.758ZM231.211 245.281C235.586 245.281 238.763 244.344 240.742 242.469C242.305 241.01 243.06 239.031 243.008 236.531C243.008 232.573 241.029 229.943 237.07 228.641C235.508 228.12 233.555 227.833 231.211 227.781H220.117V245.281H231.211ZM274.57 222.312C280.508 222.312 284.961 223.849 287.93 226.922C290.378 229.37 291.628 232.573 291.68 236.531C291.68 240.438 290.43 243.641 287.93 246.141C284.909 249.214 280.456 250.75 274.57 250.75H262.93V264.422C262.93 265.203 262.643 265.88 262.07 266.453C261.497 267.026 260.794 267.312 259.961 267.312C259.18 267.312 258.503 267.026 257.93 266.453C257.357 265.88 257.07 265.203 257.07 264.422V225.281C257.07 224.5 257.357 223.823 257.93 223.25C258.503 222.625 259.18 222.312 259.961 222.312H274.57ZM274.023 245.281C278.398 245.281 281.576 244.344 283.555 242.469C285.117 241.01 285.872 239.031 285.82 236.531C285.82 232.573 283.841 229.943 279.883 228.641C278.32 228.12 276.367 227.833 274.023 227.781H262.93V245.281H274.023ZM327.773 223.484C328.398 222.495 329.18 222 330.117 222C331.107 222 331.862 222.286 332.383 222.859C332.904 223.432 333.164 224.083 333.164 224.812C333.164 225.542 332.982 226.167 332.617 226.688L317.305 248.094V264.422C317.305 265.203 317.018 265.88 316.445 266.453C315.872 267.026 315.195 267.312 314.414 267.312C313.633 267.312 312.93 267.026 312.305 266.453C311.732 265.88 311.445 265.203 311.445 264.422V248.094L296.133 226.688C295.82 226.167 295.664 225.542 295.664 224.812C295.664 224.083 295.898 223.432 296.367 222.859C296.888 222.286 297.617 222 298.555 222C299.544 222 300.378 222.495 301.055 223.484L314.414 242.938L327.773 223.484Z" fill="black"/>
<path d="M90.5859 224.422L88.6744 225.01L88.6747 225.011L90.5859 224.422ZM101.445 259.656L99.534 260.245L101.461 266.499L103.359 260.236L101.445 259.656ZM112.148 224.344L114.062 224.924L114.064 224.918L112.148 224.344ZM117.148 222.781L115.734 224.195L115.771 224.233L115.811 224.268L117.148 222.781ZM117.695 225.906L115.798 225.274L115.795 225.281L115.793 225.289L117.695 225.906ZM105.195 264.422L107.082 265.085L107.09 265.062L107.098 265.039L105.195 264.422ZM99.0234 266.531L97.804 268.116L97.8321 268.138L97.861 268.159L99.0234 266.531ZM97.6172 264.422L99.5359 263.858L99.5301 263.838L99.5239 263.818L97.6172 264.422ZM87.3047 231.844L89.2114 231.24L87.3047 225.217L85.3979 231.24L87.3047 231.844ZM76.9922 264.422L75.0854 263.818L75.0832 263.825L76.9922 264.422ZM75.5078 266.531L76.7272 268.116L76.7354 268.11L76.7435 268.104L75.5078 266.531ZM69.4141 264.422L67.5117 265.039L67.5265 265.085L67.5435 265.13L69.4141 264.422ZM56.9141 225.906L54.9617 226.34L54.9823 226.433L55.0117 226.524L56.9141 225.906ZM57.4609 222.781L56.0467 221.367L57.4609 222.781ZM62.3828 224.344L60.4503 224.859L60.4595 224.894L60.47 224.928L62.3828 224.344ZM73.1641 259.656L71.2512 260.24L73.1619 266.499L75.0765 260.241L73.1641 259.656ZM83.9453 224.422L85.8578 225.007L85.8632 224.989L85.8684 224.971L83.9453 224.422ZM85.1953 222.703L86.3047 224.367L86.3193 224.357L86.3337 224.348L85.1953 222.703ZM87.3047 224C87.5694 224 87.8308 224.074 88.1359 224.303L90.5359 221.103C89.591 220.394 88.4983 220 87.3047 220V224ZM88.1359 224.303C88.4593 224.546 88.6031 224.779 88.6744 225.01L92.4975 223.834C92.1521 222.711 91.4625 221.798 90.5359 221.103L88.1359 224.303ZM88.6747 225.011L99.534 260.245L103.357 259.067L92.4972 223.833L88.6747 225.011ZM103.359 260.236L114.062 224.924L110.234 223.764L99.5313 259.076L103.359 260.236ZM114.064 224.918C114.215 224.415 114.392 224.226 114.481 224.156C114.557 224.096 114.719 224 115.117 224V220C114.004 220 112.917 220.295 112.003 221.016C111.103 221.727 110.551 222.71 110.233 223.769L114.064 224.918ZM115.117 224C115.496 224 115.639 224.1 115.734 224.195L118.563 221.367C117.616 220.421 116.405 220 115.117 220V224ZM115.811 224.268C115.922 224.368 115.947 224.422 115.946 224.418C115.944 224.416 115.939 224.405 115.935 224.387C115.931 224.369 115.93 224.354 115.93 224.344H119.93C119.93 223.08 119.327 222.051 118.486 221.295L115.811 224.268ZM115.93 224.344C115.93 224.735 115.876 225.039 115.798 225.274L119.593 226.539C119.827 225.836 119.93 225.098 119.93 224.344H115.93ZM115.793 225.289L103.293 263.804L107.098 265.039L119.598 226.524L115.793 225.289ZM103.308 263.759C103.064 264.454 102.772 264.807 102.525 264.994C102.292 265.17 101.948 265.312 101.367 265.312V269.312C102.662 269.312 103.893 268.973 104.936 268.186C105.964 267.409 106.649 266.317 107.082 265.085L103.308 263.759ZM101.367 265.312C100.983 265.312 100.603 265.202 100.186 264.904L97.861 268.159C98.9024 268.903 100.085 269.312 101.367 269.312V265.312ZM100.243 264.946C99.9283 264.704 99.6872 264.372 99.5359 263.858L95.6985 264.986C96.0681 266.243 96.7644 267.317 97.804 268.116L100.243 264.946ZM99.5239 263.818L89.2114 231.24L85.3979 232.447L95.7104 265.025L99.5239 263.818ZM85.3979 231.24L75.0854 263.818L78.8989 265.025L89.2114 232.447L85.3979 231.24ZM75.0832 263.825C74.9511 264.248 74.7042 264.619 74.2722 264.959L76.7435 268.104C77.7697 267.298 78.5125 266.262 78.9011 265.018L75.0832 263.825ZM74.2884 264.946C73.9515 265.205 73.6226 265.312 73.2422 265.312V269.312C74.5284 269.312 75.71 268.899 76.7272 268.116L74.2884 264.946ZM73.2422 265.312C72.702 265.312 72.3665 265.177 72.1232 264.994C71.8618 264.796 71.5537 264.425 71.2846 263.714L67.5435 265.13C68.0036 266.346 68.6981 267.42 69.7128 268.186C70.7455 268.966 71.9595 269.312 73.2422 269.312V265.312ZM71.3164 263.804L58.8164 225.289L55.0117 226.524L67.5117 265.039L71.3164 263.804ZM58.8664 225.472C58.7993 225.17 58.7578 224.798 58.7578 224.344H54.7578C54.7578 225.036 54.8205 225.705 54.9617 226.34L58.8664 225.472ZM58.7578 224.344C58.7578 224.338 58.7583 224.339 58.7574 224.343C58.7564 224.347 58.7556 224.348 58.7574 224.344C58.7606 224.337 58.7851 224.286 58.8752 224.195L56.0467 221.367C55.2667 222.147 54.7578 223.157 54.7578 224.344H58.7578ZM58.8752 224.195C58.9964 224.074 59.1275 224 59.4141 224V220C58.1381 220 56.9671 220.447 56.0467 221.367L58.8752 224.195ZM59.4141 224C59.8558 224 60.0248 224.105 60.0888 224.156C60.1597 224.212 60.3216 224.376 60.4503 224.859L64.3153 223.828C64.0273 222.749 63.4861 221.741 62.5674 221.016C61.6419 220.286 60.5348 220 59.4141 220V224ZM60.47 224.928L71.2512 260.24L75.0769 259.072L64.2956 223.76L60.47 224.928ZM75.0765 260.241L85.8578 225.007L82.0328 223.837L71.2516 259.071L75.0765 260.241ZM85.8684 224.971C85.9477 224.694 86.0787 224.518 86.3047 224.367L84.0859 221.039C83.0619 221.722 82.3596 222.692 82.0223 223.872L85.8684 224.971ZM86.3337 224.348C86.7213 224.079 87.0337 224 87.3047 224V220C86.1173 220 85.0235 220.39 84.0569 221.059L86.3337 224.348ZM154.414 262.078L152.934 263.423L152.998 263.494L153.069 263.558L154.414 262.078ZM154.414 266.141L153 264.726L152.966 264.76L152.934 264.795L154.414 266.141ZM126.445 222.938L127.86 224.352L127.89 224.321L127.92 224.289L126.445 222.938ZM130.508 222.859L129.094 224.274L129.124 224.304L129.156 224.334L130.508 222.859ZM131.445 261.219H129.445V263.219H131.445V261.219ZM152.383 263.219C152.701 263.219 152.824 263.302 152.934 263.423L155.894 260.733C154.963 259.708 153.731 259.219 152.383 259.219V263.219ZM153.069 263.558C153.19 263.669 153.273 263.791 153.273 264.109H157.273C157.273 262.761 156.784 261.529 155.759 260.598L153.069 263.558ZM153.273 264.109C153.273 264.339 153.213 264.513 153 264.726L155.828 267.555C156.761 266.622 157.273 265.443 157.273 264.109H153.273ZM152.934 264.795C152.824 264.917 152.701 265 152.383 265V269C153.731 269 154.963 268.51 155.894 267.486L152.934 264.795ZM152.383 265H129.648V269H152.383V265ZM129.648 265C129.011 265 128.563 264.805 128.172 264.414L125.344 267.242C126.515 268.414 127.994 269 129.648 269V265ZM128.172 264.414C127.781 264.023 127.586 263.575 127.586 262.938H123.586C123.586 264.592 124.172 266.071 125.344 267.242L128.172 264.414ZM127.586 262.938V224.969H123.586V262.938H127.586ZM127.586 224.969C127.586 224.74 127.646 224.565 127.86 224.352L125.031 221.523C124.099 222.456 123.586 223.635 123.586 224.969H127.586ZM127.92 224.289C128.15 224.038 128.307 224 128.477 224V220C127.083 220 125.887 220.587 124.971 221.586L127.92 224.289ZM128.477 224C128.706 224 128.88 224.06 129.094 224.274L131.922 221.445C130.99 220.513 129.81 220 128.477 220V224ZM129.156 224.334C129.376 224.535 129.445 224.707 129.445 224.969H133.445C133.445 223.564 132.889 222.329 131.859 221.385L129.156 224.334ZM129.445 224.969V261.219H133.445V224.969H129.445ZM131.445 263.219H152.383V259.219H131.445V263.219ZM165.977 228.094L164.527 226.715L165.977 228.094ZM198.477 228.094L199.935 226.725L199.926 226.715L198.477 228.094ZM204.648 244.656L206.648 244.702L206.649 244.656L206.648 244.61L204.648 244.656ZM198.477 261.219L199.926 262.597L199.935 262.588L199.943 262.578L198.477 261.219ZM159.727 244.656L157.727 244.625L157.726 244.656L157.727 244.687L159.727 244.656ZM194.492 257.156L193.008 255.816L192.999 255.826L194.492 257.156ZM194.492 232.156L193 233.488L193.008 233.497L194.492 232.156ZM182.227 227.156V229.156H182.237L182.247 229.156L182.227 227.156ZM169.883 232.156L168.401 230.813L168.399 230.816L169.883 232.156ZM165.586 244.656H167.586V244.646L167.586 244.636L165.586 244.656ZM169.883 257.156L168.387 258.483L168.394 258.491L168.401 258.499L169.883 257.156ZM167.426 229.472C171.053 225.658 175.914 223.688 182.227 223.688V219.688C174.997 219.688 169.025 221.987 164.527 226.715L167.426 229.472ZM182.227 223.688C188.539 223.688 193.4 225.658 197.027 229.472L199.926 226.715C195.428 221.987 189.456 219.688 182.227 219.688V223.688ZM197.018 229.462C200.58 233.259 202.502 238.278 202.649 244.702L206.648 244.61C206.483 237.389 204.29 231.366 199.935 226.725L197.018 229.462ZM202.649 244.61C202.502 250.977 200.583 256.004 197.01 259.859L199.943 262.578C204.287 257.892 206.482 251.877 206.648 244.702L202.649 244.61ZM197.027 259.84C193.4 263.654 188.539 265.625 182.227 265.625V269.625C189.456 269.625 195.428 267.325 199.926 262.597L197.027 259.84ZM182.227 265.625C175.914 265.625 171.053 263.654 167.426 259.84L164.527 262.597C169.025 267.325 174.997 269.625 182.227 269.625V265.625ZM167.426 259.84C163.761 255.988 161.824 250.974 161.726 244.625L157.727 244.687C157.837 251.88 160.067 257.908 164.527 262.597L167.426 259.84ZM161.726 244.687C161.824 238.339 163.761 233.325 167.426 229.472L164.527 226.715C160.067 231.404 157.837 237.432 157.727 244.625L161.726 244.687ZM182.227 264.156C187.901 264.156 192.573 262.318 195.986 258.486L192.999 255.826C190.474 258.661 186.969 260.156 182.227 260.156V264.156ZM195.976 258.497C199.281 254.838 200.867 250.165 200.867 244.656H196.867C196.867 249.356 195.536 253.016 193.008 255.816L195.976 258.497ZM200.867 244.656C200.867 239.148 199.281 234.475 195.976 230.816L193.008 233.497C195.536 236.296 196.867 239.956 196.867 244.656H200.867ZM195.984 230.825C192.525 226.947 187.852 225.099 182.206 225.156L182.247 229.156C186.914 229.109 190.418 230.594 193 233.488L195.984 230.825ZM182.227 225.156C176.552 225.156 171.862 226.994 168.401 230.813L171.365 233.499C173.945 230.652 177.485 229.156 182.227 229.156V225.156ZM168.399 230.816C165.088 234.481 163.53 239.163 163.586 244.677L167.586 244.636C167.538 239.941 168.844 236.29 171.367 233.497L168.399 230.816ZM163.586 244.656C163.586 250.155 165.14 254.824 168.387 258.483L171.379 255.829C168.897 253.031 167.586 249.366 167.586 244.656H163.586ZM168.401 258.499C171.862 262.318 176.552 264.156 182.227 264.156V260.156C177.485 260.156 173.945 258.661 171.365 255.813L168.401 258.499ZM245.117 226.922L243.679 228.311L243.691 228.324L243.703 228.336L245.117 226.922ZM248.867 236.531H250.867V236.518L250.867 236.505L248.867 236.531ZM245.117 246.141L243.703 244.726L243.697 244.732L243.691 244.739L245.117 246.141ZM220.117 250.75V248.75H218.117V250.75H220.117ZM215.117 223.25L216.531 224.664L216.562 224.633L216.591 224.601L215.117 223.25ZM240.742 242.469L239.378 241.007L239.372 241.012L239.367 241.017L240.742 242.469ZM243.008 236.531H241.008V236.552L241.008 236.573L243.008 236.531ZM237.07 228.641L236.438 230.538L236.445 230.54L237.07 228.641ZM231.211 227.781L231.255 225.782L231.233 225.781H231.211V227.781ZM220.117 227.781V225.781H218.117V227.781H220.117ZM220.117 245.281H218.117V247.281H220.117V245.281ZM231.758 224.312C237.369 224.312 241.215 225.761 243.679 228.311L246.556 225.532C243.082 221.937 238.021 220.312 231.758 220.312V224.312ZM243.703 228.336C245.729 230.362 246.821 233.04 246.867 236.558L250.867 236.505C250.809 232.106 249.401 228.378 246.531 225.508L243.703 228.336ZM246.867 236.531C246.867 239.968 245.787 242.643 243.703 244.726L246.531 247.555C249.448 244.639 250.867 240.907 250.867 236.531H246.867ZM243.691 244.739C241.167 247.306 237.308 248.75 231.758 248.75V252.75C237.978 252.75 243.026 251.121 246.543 247.543L243.691 244.739ZM231.758 248.75H220.117V252.75H231.758V248.75ZM218.117 250.75V264.422H222.117V250.75H218.117ZM218.117 264.422C218.117 264.651 218.057 264.826 217.844 265.039L220.672 267.867C221.604 266.935 222.117 265.755 222.117 264.422H218.117ZM217.844 265.039C217.658 265.225 217.468 265.312 217.148 265.312V269.312C218.495 269.312 219.712 268.827 220.672 267.867L217.844 265.039ZM217.148 265.312C216.919 265.312 216.745 265.252 216.531 265.039L213.703 267.867C214.635 268.8 215.815 269.312 217.148 269.312V265.312ZM216.531 265.039C216.318 264.826 216.258 264.651 216.258 264.422H212.258C212.258 265.755 212.771 266.935 213.703 267.867L216.531 265.039ZM216.258 264.422V225.281H212.258V264.422H216.258ZM216.258 225.281C216.258 225.052 216.318 224.878 216.531 224.664L213.703 221.836C212.771 222.768 212.258 223.948 212.258 225.281H216.258ZM216.591 224.601C216.822 224.35 216.979 224.312 217.148 224.312V220.312C215.755 220.312 214.558 220.9 213.643 221.899L216.591 224.601ZM217.148 224.312H231.758V220.312H217.148V224.312ZM231.211 247.281C235.803 247.281 239.597 246.308 242.118 243.921L239.367 241.017C237.929 242.379 235.369 243.281 231.211 243.281V247.281ZM242.107 243.931C244.157 242.017 245.069 239.452 245.007 236.49L241.008 236.573C241.051 238.61 240.452 240.003 239.378 241.007L242.107 243.931ZM245.008 236.531C245.008 234.209 244.422 232.115 243.122 230.387C241.828 228.669 239.959 227.485 237.695 226.741L236.445 230.54C238.14 231.098 239.24 231.881 239.925 232.792C240.605 233.695 241.008 234.896 241.008 236.531H245.008ZM237.703 226.743C235.889 226.139 233.722 225.837 231.255 225.782L231.167 229.781C233.387 229.83 235.127 230.101 236.438 230.538L237.703 226.743ZM231.211 225.781H220.117V229.781H231.211V225.781ZM218.117 227.781V245.281H222.117V227.781H218.117ZM220.117 247.281H231.211V243.281H220.117V247.281ZM287.93 226.922L286.491 228.311L286.503 228.324L286.515 228.336L287.93 226.922ZM291.68 236.531H293.68V236.518L293.68 236.505L291.68 236.531ZM287.93 246.141L286.515 244.726L286.509 244.732L286.503 244.739L287.93 246.141ZM262.93 250.75V248.75H260.93V250.75H262.93ZM257.93 223.25L259.344 224.664L259.375 224.633L259.404 224.601L257.93 223.25ZM283.555 242.469L282.19 241.007L282.185 241.012L282.179 241.017L283.555 242.469ZM285.82 236.531H283.82V236.552L283.821 236.573L285.82 236.531ZM279.883 228.641L279.25 230.538L279.258 230.54L279.883 228.641ZM274.023 227.781L274.068 225.782L274.046 225.781H274.023V227.781ZM262.93 227.781V225.781H260.93V227.781H262.93ZM262.93 245.281H260.93V247.281H262.93V245.281ZM274.57 224.312C280.182 224.312 284.027 225.761 286.491 228.311L289.368 225.532C285.895 221.937 280.834 220.312 274.57 220.312V224.312ZM286.515 228.336C288.541 230.362 289.634 233.04 289.68 236.558L293.68 236.505C293.622 232.106 292.214 228.378 289.344 225.508L286.515 228.336ZM289.68 236.531C289.68 239.968 288.599 242.643 286.515 244.726L289.344 247.555C292.26 244.639 293.68 240.907 293.68 236.531H289.68ZM286.503 244.739C283.98 247.306 280.121 248.75 274.57 248.75V252.75C280.791 252.75 285.838 251.121 289.356 247.543L286.503 244.739ZM274.57 248.75H262.93V252.75H274.57V248.75ZM260.93 250.75V264.422H264.93V250.75H260.93ZM260.93 264.422C260.93 264.651 260.869 264.826 260.656 265.039L263.485 267.867C264.417 266.935 264.93 265.755 264.93 264.422H260.93ZM260.656 265.039C260.47 265.225 260.281 265.312 259.961 265.312V269.312C261.308 269.312 262.525 268.827 263.485 267.867L260.656 265.039ZM259.961 265.312C259.732 265.312 259.557 265.252 259.344 265.039L256.515 267.867C257.448 268.8 258.628 269.312 259.961 269.312V265.312ZM259.344 265.039C259.131 264.826 259.07 264.651 259.07 264.422H255.07C255.07 265.755 255.583 266.935 256.515 267.867L259.344 265.039ZM259.07 264.422V225.281H255.07V264.422H259.07ZM259.07 225.281C259.07 225.052 259.131 224.878 259.344 224.664L256.515 221.836C255.583 222.768 255.07 223.948 255.07 225.281H259.07ZM259.404 224.601C259.634 224.35 259.792 224.312 259.961 224.312V220.312C258.568 220.312 257.371 220.9 256.455 221.899L259.404 224.601ZM259.961 224.312H274.57V220.312H259.961V224.312ZM274.023 247.281C278.615 247.281 282.41 246.308 284.93 243.921L282.179 241.017C280.741 242.379 278.182 243.281 274.023 243.281V247.281ZM284.919 243.931C286.969 242.017 287.882 239.452 287.82 236.49L283.821 236.573C283.863 238.61 283.265 240.003 282.19 241.007L284.919 243.931ZM287.82 236.531C287.82 234.209 287.234 232.115 285.934 230.387C284.641 228.669 282.772 227.485 280.508 226.741L279.258 230.54C280.952 231.098 282.052 231.881 282.738 232.792C283.417 233.695 283.82 234.896 283.82 236.531H287.82ZM280.515 226.743C278.701 226.139 276.534 225.837 274.068 225.782L273.979 229.781C276.2 229.83 277.939 230.101 279.25 230.538L280.515 226.743ZM274.023 225.781H262.93V229.781H274.023V225.781ZM260.93 227.781V245.281H264.93V227.781H260.93ZM262.93 247.281H274.023V243.281H262.93V247.281ZM327.773 223.484L329.422 224.617L329.444 224.585L329.464 224.552L327.773 223.484ZM332.617 226.688L334.244 227.851L334.25 227.843L334.256 227.834L332.617 226.688ZM317.305 248.094L315.678 246.93L315.305 247.452V248.094H317.305ZM312.305 266.453L310.89 267.867L310.921 267.898L310.953 267.927L312.305 266.453ZM311.445 248.094H313.445V247.452L313.072 246.93L311.445 248.094ZM296.133 226.688L294.418 227.716L294.459 227.786L294.506 227.851L296.133 226.688ZM296.367 222.859L294.887 221.514L294.852 221.553L294.819 221.593L296.367 222.859ZM301.055 223.484L299.404 224.614L299.406 224.617L301.055 223.484ZM314.414 242.938L312.765 244.07L314.414 246.47L316.063 244.07L314.414 242.938ZM329.464 224.552C329.827 223.978 330.041 224 330.117 224V220C328.319 220 326.97 221.012 326.082 222.416L329.464 224.552ZM330.117 224C330.71 224 330.86 224.158 330.903 224.205L333.863 221.514C332.863 220.415 331.503 220 330.117 220V224ZM330.903 224.205C331.112 224.434 331.164 224.614 331.164 224.812H335.164C335.164 223.553 334.696 222.43 333.863 221.514L330.903 224.205ZM331.164 224.812C331.164 225.194 331.075 225.404 330.979 225.541L334.256 227.834C334.889 226.93 335.164 225.89 335.164 224.812H331.164ZM330.991 225.524L315.678 246.93L318.931 249.257L334.244 227.851L330.991 225.524ZM315.305 248.094V264.422H319.305V248.094H315.305ZM315.305 264.422C315.305 264.651 315.244 264.826 315.031 265.039L317.86 267.867C318.792 266.935 319.305 265.755 319.305 264.422H315.305ZM315.031 265.039C314.818 265.252 314.643 265.312 314.414 265.312V269.312C315.747 269.312 316.927 268.8 317.86 267.867L315.031 265.039ZM314.414 265.312C314.178 265.312 313.947 265.245 313.656 264.979L310.953 267.927C311.913 268.807 313.088 269.312 314.414 269.312V265.312ZM313.719 265.039C313.506 264.826 313.445 264.651 313.445 264.422H309.445C309.445 265.755 309.958 266.935 310.89 267.867L313.719 265.039ZM313.445 264.422V248.094H309.445V264.422H313.445ZM313.072 246.93L297.759 225.524L294.506 227.851L309.819 249.257L313.072 246.93ZM297.848 225.659C297.756 225.506 297.664 225.252 297.664 224.812H293.664C293.664 225.831 293.885 226.828 294.418 227.716L297.848 225.659ZM297.664 224.812C297.664 224.553 297.734 224.347 297.915 224.126L294.819 221.593C294.063 222.517 293.664 223.614 293.664 224.812H297.664ZM297.847 224.205C297.91 224.135 298.052 224 298.555 224V220C297.182 220 295.866 220.438 294.887 221.514L297.847 224.205ZM298.555 224C298.739 224 299.01 224.038 299.404 224.614L302.705 222.355C301.745 220.952 300.349 220 298.555 220V224ZM299.406 224.617L312.765 244.07L316.063 241.805L302.703 222.352L299.406 224.617ZM316.063 244.07L329.422 224.617L326.125 222.352L312.765 241.805L316.063 244.07Z" fill="black" mask="url(#path-1-outside-1_102_57)"/>
<path d="M192.484 195.5C192.484 195.5 153.005 196.209 97.2887 187.791C-18.9407 170.23 -19.2516 10 97.2887 10C188.357 10 192.305 97.4438 192.476 105.025C192.428 97.4437 194.056 10 294.505 10C392.505 10 412.505 171 289.505 187.791C233.987 195.369 192.484 195.5 192.484 195.5Z" fill="#1AD14D" stroke="black" stroke-width="20"/>
<circle cx="284.505" cy="98" r="42" fill="white"/>
<ellipse cx="279.005" cy="98.5" rx="13.5" ry="25.5" transform="rotate(5 279.005 98.5)" fill="black"/>
<circle cx="96.505" cy="98" r="42" fill="white"/>
<ellipse cx="107.005" cy="98.4998" rx="13.5" ry="25.5" transform="rotate(-5 107.005 98.4998)" fill="black"/>
<path d="M186.776 130.5C186.776 130.5 240.761 177.015 240.761 99.3997M289.529 140.739C349.747 140.739 349.231 53.0195 289.529 53.0195C240.761 53.0195 240.761 99.3997 240.761 99.3997M289.529 140.739C289.529 140.739 240.761 141.747 240.761 99.3997M289.529 140.739C271.087 140.739 240.761 130.656 240.761 99.3997" stroke="black" stroke-width="20"/>
<path d="M199.502 130.714C199.502 130.714 144.243 175.362 144.243 99.3997M95.4758 140.739C35.2568 140.739 35.7733 53.0195 95.4758 53.0195C144.243 53.0195 144.243 99.3997 144.243 99.3997M95.4758 140.739C95.4758 140.739 144.243 141.747 144.243 99.3997M95.4758 140.739C113.918 140.739 144.243 130.656 144.243 99.3997" stroke="black" stroke-width="20"/>
</svg>
