<svg width="400" height="400" viewBox="0 0 400 400" fill="none" xmlns="http://www.w3.org/2000/svg">
<g clip-path="url(#clip0_22_160)">
<rect x="0.00012207" width="400" height="400" rx="40" fill="#25B45E"/>
<rect x="44" y="282" width="311" height="80" rx="15" fill="black"/>
<mask id="mask0_22_160" style="mask-type:alpha" maskUnits="userSpaceOnUse" x="61" y="298" width="278" height="47">
<mask id="path-3-outside-1_22_160" maskUnits="userSpaceOnUse" x="59" y="296" width="282" height="51" fill="black">
<rect fill="white" x="59" y="296" width="282" height="51"/>
<path d="M92.3047 299C93.0339 299 93.7109 299.234 94.3359 299.703C94.9609 300.172 95.3776 300.745 95.5859 301.422L106.445 336.656L117.148 301.344C117.617 299.781 118.607 299 120.117 299C120.951 299 121.628 299.26 122.148 299.781C122.669 300.25 122.93 300.771 122.93 301.344C122.93 301.917 122.852 302.438 122.695 302.906L110.195 341.422C109.518 343.349 108.242 344.312 106.367 344.312C105.534 344.312 104.753 344.052 104.023 343.531C103.346 343.01 102.878 342.307 102.617 341.422L92.3047 308.844L81.9922 341.422C81.7318 342.255 81.237 342.958 80.5078 343.531C79.8307 344.052 79.0755 344.312 78.2422 344.312C76.4193 344.312 75.1432 343.349 74.4141 341.422L61.9141 302.906C61.8099 302.438 61.7578 301.917 61.7578 301.344C61.7578 300.771 61.9922 300.25 62.4609 299.781C62.9818 299.26 63.6328 299 64.4141 299C65.9766 299 66.9661 299.781 67.3828 301.344L78.1641 336.656L88.9453 301.422C89.1536 300.693 89.5703 300.12 90.1953 299.703C90.8724 299.234 91.5755 299 92.3047 299ZM157.383 338.219C158.216 338.219 158.893 338.505 159.414 339.078C159.987 339.599 160.273 340.276 160.273 341.109C160.273 341.891 159.987 342.568 159.414 343.141C158.893 343.714 158.216 344 157.383 344H134.648C133.503 344 132.539 343.609 131.758 342.828C130.977 342.047 130.586 341.083 130.586 339.938V301.969C130.586 301.188 130.872 300.51 131.445 299.938C132.018 299.312 132.695 299 133.477 299C134.258 299 134.935 299.286 135.508 299.859C136.133 300.432 136.445 301.135 136.445 301.969V338.219H157.383ZM170.977 305.094C175.039 300.823 180.456 298.688 187.227 298.688C193.997 298.688 199.414 300.823 203.477 305.094C207.435 309.312 209.492 314.833 209.648 321.656C209.492 328.427 207.435 333.948 203.477 338.219C199.414 342.49 193.997 344.625 187.227 344.625C180.456 344.625 175.039 342.49 170.977 338.219C166.914 333.948 164.831 328.427 164.727 321.656C164.831 314.885 166.914 309.365 170.977 305.094ZM187.227 339.156C192.435 339.156 196.523 337.49 199.492 334.156C202.409 330.927 203.867 326.76 203.867 321.656C203.867 316.552 202.409 312.385 199.492 309.156C196.471 305.771 192.383 304.104 187.227 304.156C182.018 304.156 177.904 305.823 174.883 309.156C171.966 312.385 170.534 316.552 170.586 321.656C170.586 326.76 172.018 330.927 174.883 334.156C177.904 337.49 182.018 339.156 187.227 339.156ZM236.758 299.312C242.695 299.312 247.148 300.849 250.117 303.922C252.565 306.37 253.815 309.573 253.867 313.531C253.867 317.438 252.617 320.641 250.117 323.141C247.096 326.214 242.643 327.75 236.758 327.75H225.117V341.422C225.117 342.203 224.831 342.88 224.258 343.453C223.685 344.026 222.982 344.312 222.148 344.312C221.367 344.312 220.69 344.026 220.117 343.453C219.544 342.88 219.258 342.203 219.258 341.422V302.281C219.258 301.5 219.544 300.823 220.117 300.25C220.69 299.625 221.367 299.312 222.148 299.312H236.758ZM236.211 322.281C240.586 322.281 243.763 321.344 245.742 319.469C247.305 318.01 248.06 316.031 248.008 313.531C248.008 309.573 246.029 306.943 242.07 305.641C240.508 305.12 238.555 304.833 236.211 304.781H225.117V322.281H236.211ZM279.57 299.312C285.508 299.312 289.961 300.849 292.93 303.922C295.378 306.37 296.628 309.573 296.68 313.531C296.68 317.438 295.43 320.641 292.93 323.141C289.909 326.214 285.456 327.75 279.57 327.75H267.93V341.422C267.93 342.203 267.643 342.88 267.07 343.453C266.497 344.026 265.794 344.312 264.961 344.312C264.18 344.312 263.503 344.026 262.93 343.453C262.357 342.88 262.07 342.203 262.07 341.422V302.281C262.07 301.5 262.357 300.823 262.93 300.25C263.503 299.625 264.18 299.312 264.961 299.312H279.57ZM279.023 322.281C283.398 322.281 286.576 321.344 288.555 319.469C290.117 318.01 290.872 316.031 290.82 313.531C290.82 309.573 288.841 306.943 284.883 305.641C283.32 305.12 281.367 304.833 279.023 304.781H267.93V322.281H279.023ZM332.773 300.484C333.398 299.495 334.18 299 335.117 299C336.107 299 336.862 299.286 337.383 299.859C337.904 300.432 338.164 301.083 338.164 301.812C338.164 302.542 337.982 303.167 337.617 303.688L322.305 325.094V341.422C322.305 342.203 322.018 342.88 321.445 343.453C320.872 344.026 320.195 344.312 319.414 344.312C318.633 344.312 317.93 344.026 317.305 343.453C316.732 342.88 316.445 342.203 316.445 341.422V325.094L301.133 303.688C300.82 303.167 300.664 302.542 300.664 301.812C300.664 301.083 300.898 300.432 301.367 299.859C301.888 299.286 302.617 299 303.555 299C304.544 299 305.378 299.495 306.055 300.484L319.414 319.938L332.773 300.484Z"/>
</mask>
<path d="M92.3047 299C93.0339 299 93.7109 299.234 94.3359 299.703C94.9609 300.172 95.3776 300.745 95.5859 301.422L106.445 336.656L117.148 301.344C117.617 299.781 118.607 299 120.117 299C120.951 299 121.628 299.26 122.148 299.781C122.669 300.25 122.93 300.771 122.93 301.344C122.93 301.917 122.852 302.438 122.695 302.906L110.195 341.422C109.518 343.349 108.242 344.312 106.367 344.312C105.534 344.312 104.753 344.052 104.023 343.531C103.346 343.01 102.878 342.307 102.617 341.422L92.3047 308.844L81.9922 341.422C81.7318 342.255 81.237 342.958 80.5078 343.531C79.8307 344.052 79.0755 344.312 78.2422 344.312C76.4193 344.312 75.1432 343.349 74.4141 341.422L61.9141 302.906C61.8099 302.438 61.7578 301.917 61.7578 301.344C61.7578 300.771 61.9922 300.25 62.4609 299.781C62.9818 299.26 63.6328 299 64.4141 299C65.9766 299 66.9661 299.781 67.3828 301.344L78.1641 336.656L88.9453 301.422C89.1536 300.693 89.5703 300.12 90.1953 299.703C90.8724 299.234 91.5755 299 92.3047 299ZM157.383 338.219C158.216 338.219 158.893 338.505 159.414 339.078C159.987 339.599 160.273 340.276 160.273 341.109C160.273 341.891 159.987 342.568 159.414 343.141C158.893 343.714 158.216 344 157.383 344H134.648C133.503 344 132.539 343.609 131.758 342.828C130.977 342.047 130.586 341.083 130.586 339.938V301.969C130.586 301.188 130.872 300.51 131.445 299.938C132.018 299.312 132.695 299 133.477 299C134.258 299 134.935 299.286 135.508 299.859C136.133 300.432 136.445 301.135 136.445 301.969V338.219H157.383ZM170.977 305.094C175.039 300.823 180.456 298.688 187.227 298.688C193.997 298.688 199.414 300.823 203.477 305.094C207.435 309.312 209.492 314.833 209.648 321.656C209.492 328.427 207.435 333.948 203.477 338.219C199.414 342.49 193.997 344.625 187.227 344.625C180.456 344.625 175.039 342.49 170.977 338.219C166.914 333.948 164.831 328.427 164.727 321.656C164.831 314.885 166.914 309.365 170.977 305.094ZM187.227 339.156C192.435 339.156 196.523 337.49 199.492 334.156C202.409 330.927 203.867 326.76 203.867 321.656C203.867 316.552 202.409 312.385 199.492 309.156C196.471 305.771 192.383 304.104 187.227 304.156C182.018 304.156 177.904 305.823 174.883 309.156C171.966 312.385 170.534 316.552 170.586 321.656C170.586 326.76 172.018 330.927 174.883 334.156C177.904 337.49 182.018 339.156 187.227 339.156ZM236.758 299.312C242.695 299.312 247.148 300.849 250.117 303.922C252.565 306.37 253.815 309.573 253.867 313.531C253.867 317.438 252.617 320.641 250.117 323.141C247.096 326.214 242.643 327.75 236.758 327.75H225.117V341.422C225.117 342.203 224.831 342.88 224.258 343.453C223.685 344.026 222.982 344.312 222.148 344.312C221.367 344.312 220.69 344.026 220.117 343.453C219.544 342.88 219.258 342.203 219.258 341.422V302.281C219.258 301.5 219.544 300.823 220.117 300.25C220.69 299.625 221.367 299.312 222.148 299.312H236.758ZM236.211 322.281C240.586 322.281 243.763 321.344 245.742 319.469C247.305 318.01 248.06 316.031 248.008 313.531C248.008 309.573 246.029 306.943 242.07 305.641C240.508 305.12 238.555 304.833 236.211 304.781H225.117V322.281H236.211ZM279.57 299.312C285.508 299.312 289.961 300.849 292.93 303.922C295.378 306.37 296.628 309.573 296.68 313.531C296.68 317.438 295.43 320.641 292.93 323.141C289.909 326.214 285.456 327.75 279.57 327.75H267.93V341.422C267.93 342.203 267.643 342.88 267.07 343.453C266.497 344.026 265.794 344.312 264.961 344.312C264.18 344.312 263.503 344.026 262.93 343.453C262.357 342.88 262.07 342.203 262.07 341.422V302.281C262.07 301.5 262.357 300.823 262.93 300.25C263.503 299.625 264.18 299.312 264.961 299.312H279.57ZM279.023 322.281C283.398 322.281 286.576 321.344 288.555 319.469C290.117 318.01 290.872 316.031 290.82 313.531C290.82 309.573 288.841 306.943 284.883 305.641C283.32 305.12 281.367 304.833 279.023 304.781H267.93V322.281H279.023ZM332.773 300.484C333.398 299.495 334.18 299 335.117 299C336.107 299 336.862 299.286 337.383 299.859C337.904 300.432 338.164 301.083 338.164 301.812C338.164 302.542 337.982 303.167 337.617 303.688L322.305 325.094V341.422C322.305 342.203 322.018 342.88 321.445 343.453C320.872 344.026 320.195 344.312 319.414 344.312C318.633 344.312 317.93 344.026 317.305 343.453C316.732 342.88 316.445 342.203 316.445 341.422V325.094L301.133 303.688C300.82 303.167 300.664 302.542 300.664 301.812C300.664 301.083 300.898 300.432 301.367 299.859C301.888 299.286 302.617 299 303.555 299C304.544 299 305.378 299.495 306.055 300.484L319.414 319.938L332.773 300.484Z" fill="white"/>
<path d="M95.5859 301.422L93.6744 302.01L93.6747 302.011L95.5859 301.422ZM106.445 336.656L104.534 337.245L106.461 343.499L108.359 337.236L106.445 336.656ZM117.148 301.344L119.062 301.924L119.064 301.918L117.148 301.344ZM122.148 299.781L120.734 301.195L120.771 301.233L120.811 301.268L122.148 299.781ZM122.695 302.906L120.798 302.274L120.795 302.281L120.793 302.289L122.695 302.906ZM110.195 341.422L112.082 342.085L112.09 342.062L112.098 342.039L110.195 341.422ZM104.023 343.531L102.804 345.116L102.832 345.138L102.861 345.159L104.023 343.531ZM102.617 341.422L104.536 340.858L104.53 340.838L104.524 340.818L102.617 341.422ZM92.3047 308.844L94.2114 308.24L92.3047 302.217L90.3979 308.24L92.3047 308.844ZM81.9922 341.422L80.0854 340.818L80.0832 340.825L81.9922 341.422ZM80.5078 343.531L81.7272 345.116L81.7354 345.11L81.7435 345.104L80.5078 343.531ZM74.4141 341.422L72.5117 342.039L72.5265 342.085L72.5435 342.13L74.4141 341.422ZM61.9141 302.906L59.9617 303.34L59.9823 303.433L60.0117 303.524L61.9141 302.906ZM62.4609 299.781L61.0467 298.367L62.4609 299.781ZM67.3828 301.344L65.4503 301.859L65.4595 301.894L65.47 301.928L67.3828 301.344ZM78.1641 336.656L76.2512 337.24L78.1619 343.499L80.0765 337.241L78.1641 336.656ZM88.9453 301.422L90.8578 302.007L90.8632 301.989L90.8684 301.971L88.9453 301.422ZM90.1953 299.703L91.3047 301.367L91.3193 301.357L91.3337 301.348L90.1953 299.703ZM92.3047 301C92.5694 301 92.8308 301.074 93.1359 301.303L95.5359 298.103C94.591 297.394 93.4983 297 92.3047 297V301ZM93.1359 301.303C93.4593 301.546 93.6031 301.779 93.6744 302.01L97.4975 300.834C97.1521 299.711 96.4625 298.798 95.5359 298.103L93.1359 301.303ZM93.6747 302.011L104.534 337.245L108.357 336.067L97.4972 300.833L93.6747 302.011ZM108.359 337.236L119.062 301.924L115.234 300.764L104.531 336.076L108.359 337.236ZM119.064 301.918C119.215 301.415 119.392 301.226 119.481 301.156C119.557 301.096 119.719 301 120.117 301V297C119.004 297 117.917 297.295 117.003 298.016C116.103 298.727 115.551 299.71 115.233 300.769L119.064 301.918ZM120.117 301C120.496 301 120.639 301.1 120.734 301.195L123.563 298.367C122.616 297.421 121.405 297 120.117 297V301ZM120.811 301.268C120.922 301.368 120.947 301.422 120.946 301.418C120.944 301.416 120.939 301.405 120.935 301.387C120.931 301.369 120.93 301.354 120.93 301.344H124.93C124.93 300.08 124.327 299.051 123.486 298.295L120.811 301.268ZM120.93 301.344C120.93 301.735 120.876 302.039 120.798 302.274L124.593 303.539C124.827 302.836 124.93 302.098 124.93 301.344H120.93ZM120.793 302.289L108.293 340.804L112.098 342.039L124.598 303.524L120.793 302.289ZM108.308 340.759C108.064 341.454 107.772 341.807 107.525 341.994C107.292 342.17 106.948 342.312 106.367 342.312V346.312C107.662 346.312 108.893 345.973 109.936 345.186C110.964 344.409 111.649 343.317 112.082 342.085L108.308 340.759ZM106.367 342.312C105.983 342.312 105.603 342.202 105.186 341.904L102.861 345.159C103.902 345.903 105.085 346.312 106.367 346.312V342.312ZM105.243 341.946C104.928 341.704 104.687 341.372 104.536 340.858L100.698 341.986C101.068 343.243 101.764 344.317 102.804 345.116L105.243 341.946ZM104.524 340.818L94.2114 308.24L90.3979 309.447L100.71 342.025L104.524 340.818ZM90.3979 308.24L80.0854 340.818L83.8989 342.025L94.2114 309.447L90.3979 308.24ZM80.0832 340.825C79.9511 341.248 79.7042 341.619 79.2722 341.959L81.7435 345.104C82.7697 344.298 83.5125 343.262 83.9011 342.018L80.0832 340.825ZM79.2884 341.946C78.9515 342.205 78.6226 342.312 78.2422 342.312V346.312C79.5284 346.312 80.71 345.899 81.7272 345.116L79.2884 341.946ZM78.2422 342.312C77.702 342.312 77.3665 342.177 77.1232 341.994C76.8618 341.796 76.5537 341.425 76.2846 340.714L72.5435 342.13C73.0036 343.346 73.6981 344.42 74.7128 345.186C75.7455 345.966 76.9595 346.312 78.2422 346.312V342.312ZM76.3164 340.804L63.8164 302.289L60.0117 303.524L72.5117 342.039L76.3164 340.804ZM63.8664 302.472C63.7993 302.17 63.7578 301.798 63.7578 301.344H59.7578C59.7578 302.036 59.8205 302.705 59.9617 303.34L63.8664 302.472ZM63.7578 301.344C63.7578 301.338 63.7583 301.339 63.7574 301.343C63.7564 301.347 63.7556 301.348 63.7574 301.344C63.7606 301.337 63.7851 301.286 63.8752 301.195L61.0467 298.367C60.2667 299.147 59.7578 300.157 59.7578 301.344H63.7578ZM63.8752 301.195C63.9964 301.074 64.1275 301 64.4141 301V297C63.1381 297 61.9671 297.447 61.0467 298.367L63.8752 301.195ZM64.4141 301C64.8558 301 65.0248 301.105 65.0888 301.156C65.1597 301.212 65.3216 301.376 65.4503 301.859L69.3153 300.828C69.0273 299.749 68.4861 298.741 67.5674 298.016C66.6419 297.286 65.5348 297 64.4141 297V301ZM65.47 301.928L76.2512 337.24L80.0769 336.072L69.2956 300.76L65.47 301.928ZM80.0765 337.241L90.8578 302.007L87.0328 300.837L76.2516 336.071L80.0765 337.241ZM90.8684 301.971C90.9477 301.694 91.0787 301.518 91.3047 301.367L89.0859 298.039C88.0619 298.722 87.3596 299.692 87.0223 300.872L90.8684 301.971ZM91.3337 301.348C91.7213 301.079 92.0337 301 92.3047 301V297C91.1173 297 90.0235 297.39 89.0569 298.059L91.3337 301.348ZM159.414 339.078L157.934 340.423L157.998 340.494L158.069 340.558L159.414 339.078ZM159.414 343.141L158 341.726L157.966 341.76L157.934 341.795L159.414 343.141ZM131.445 299.938L132.86 301.352L132.89 301.321L132.92 301.289L131.445 299.938ZM135.508 299.859L134.094 301.274L134.124 301.304L134.156 301.334L135.508 299.859ZM136.445 338.219H134.445V340.219H136.445V338.219ZM157.383 340.219C157.701 340.219 157.824 340.302 157.934 340.423L160.894 337.733C159.963 336.708 158.731 336.219 157.383 336.219V340.219ZM158.069 340.558C158.19 340.669 158.273 340.791 158.273 341.109H162.273C162.273 339.761 161.784 338.529 160.759 337.598L158.069 340.558ZM158.273 341.109C158.273 341.339 158.213 341.513 158 341.726L160.828 344.555C161.761 343.622 162.273 342.443 162.273 341.109H158.273ZM157.934 341.795C157.824 341.917 157.701 342 157.383 342V346C158.731 346 159.963 345.51 160.894 344.486L157.934 341.795ZM157.383 342H134.648V346H157.383V342ZM134.648 342C134.011 342 133.563 341.805 133.172 341.414L130.344 344.242C131.515 345.414 132.994 346 134.648 346V342ZM133.172 341.414C132.781 341.023 132.586 340.575 132.586 339.938H128.586C128.586 341.592 129.172 343.071 130.344 344.242L133.172 341.414ZM132.586 339.938V301.969H128.586V339.938H132.586ZM132.586 301.969C132.586 301.74 132.646 301.565 132.86 301.352L130.031 298.523C129.099 299.456 128.586 300.635 128.586 301.969H132.586ZM132.92 301.289C133.15 301.038 133.307 301 133.477 301V297C132.083 297 130.887 297.587 129.971 298.586L132.92 301.289ZM133.477 301C133.706 301 133.88 301.06 134.094 301.274L136.922 298.445C135.99 297.513 134.81 297 133.477 297V301ZM134.156 301.334C134.376 301.535 134.445 301.707 134.445 301.969H138.445C138.445 300.564 137.889 299.329 136.859 298.385L134.156 301.334ZM134.445 301.969V338.219H138.445V301.969H134.445ZM136.445 340.219H157.383V336.219H136.445V340.219ZM170.977 305.094L169.527 303.715L170.977 305.094ZM203.477 305.094L204.935 303.725L204.926 303.715L203.477 305.094ZM209.648 321.656L211.648 321.702L211.649 321.656L211.648 321.61L209.648 321.656ZM203.477 338.219L204.926 339.597L204.935 339.588L204.943 339.578L203.477 338.219ZM164.727 321.656L162.727 321.625L162.726 321.656L162.727 321.687L164.727 321.656ZM199.492 334.156L198.008 332.816L197.999 332.826L199.492 334.156ZM199.492 309.156L198 310.488L198.008 310.497L199.492 309.156ZM187.227 304.156V306.156H187.237L187.247 306.156L187.227 304.156ZM174.883 309.156L173.401 307.813L173.399 307.816L174.883 309.156ZM170.586 321.656H172.586V321.646L172.586 321.636L170.586 321.656ZM174.883 334.156L173.387 335.483L173.394 335.491L173.401 335.499L174.883 334.156ZM172.426 306.472C176.053 302.658 180.914 300.688 187.227 300.688V296.688C179.997 296.688 174.025 298.987 169.527 303.715L172.426 306.472ZM187.227 300.688C193.539 300.688 198.4 302.658 202.027 306.472L204.926 303.715C200.428 298.987 194.456 296.688 187.227 296.688V300.688ZM202.018 306.462C205.58 310.259 207.502 315.278 207.649 321.702L211.648 321.61C211.483 314.389 209.29 308.366 204.935 303.725L202.018 306.462ZM207.649 321.61C207.502 327.977 205.583 333.004 202.01 336.859L204.943 339.578C209.287 334.892 211.482 328.877 211.648 321.702L207.649 321.61ZM202.027 336.84C198.4 340.654 193.539 342.625 187.227 342.625V346.625C194.456 346.625 200.428 344.325 204.926 339.597L202.027 336.84ZM187.227 342.625C180.914 342.625 176.053 340.654 172.426 336.84L169.527 339.597C174.025 344.325 179.997 346.625 187.227 346.625V342.625ZM172.426 336.84C168.761 332.988 166.824 327.974 166.726 321.625L162.727 321.687C162.837 328.88 165.067 334.908 169.527 339.597L172.426 336.84ZM166.726 321.687C166.824 315.339 168.761 310.325 172.426 306.472L169.527 303.715C165.067 308.404 162.837 314.432 162.727 321.625L166.726 321.687ZM187.227 341.156C192.901 341.156 197.573 339.318 200.986 335.486L197.999 332.826C195.474 335.661 191.969 337.156 187.227 337.156V341.156ZM200.976 335.497C204.281 331.838 205.867 327.165 205.867 321.656H201.867C201.867 326.356 200.536 330.016 198.008 332.816L200.976 335.497ZM205.867 321.656C205.867 316.148 204.281 311.475 200.976 307.816L198.008 310.497C200.536 313.296 201.867 316.956 201.867 321.656H205.867ZM200.984 307.825C197.525 303.947 192.852 302.099 187.206 302.156L187.247 306.156C191.914 306.109 195.418 307.594 198 310.488L200.984 307.825ZM187.227 302.156C181.552 302.156 176.862 303.994 173.401 307.813L176.365 310.499C178.945 307.652 182.485 306.156 187.227 306.156V302.156ZM173.399 307.816C170.088 311.481 168.53 316.163 168.586 321.677L172.586 321.636C172.538 316.941 173.844 313.29 176.367 310.497L173.399 307.816ZM168.586 321.656C168.586 327.155 170.14 331.824 173.387 335.483L176.379 332.829C173.897 330.031 172.586 326.366 172.586 321.656H168.586ZM173.401 335.499C176.862 339.318 181.552 341.156 187.227 341.156V337.156C182.485 337.156 178.945 335.661 176.365 332.813L173.401 335.499ZM250.117 303.922L248.679 305.311L248.691 305.324L248.703 305.336L250.117 303.922ZM253.867 313.531H255.867V313.518L255.867 313.505L253.867 313.531ZM250.117 323.141L248.703 321.726L248.697 321.732L248.691 321.739L250.117 323.141ZM225.117 327.75V325.75H223.117V327.75H225.117ZM220.117 300.25L221.531 301.664L221.562 301.633L221.591 301.601L220.117 300.25ZM245.742 319.469L244.378 318.007L244.372 318.012L244.367 318.017L245.742 319.469ZM248.008 313.531H246.008V313.552L246.008 313.573L248.008 313.531ZM242.07 305.641L241.438 307.538L241.445 307.54L242.07 305.641ZM236.211 304.781L236.255 302.782L236.233 302.781H236.211V304.781ZM225.117 304.781V302.781H223.117V304.781H225.117ZM225.117 322.281H223.117V324.281H225.117V322.281ZM236.758 301.312C242.369 301.312 246.215 302.761 248.679 305.311L251.556 302.532C248.082 298.937 243.021 297.312 236.758 297.312V301.312ZM248.703 305.336C250.729 307.362 251.821 310.04 251.867 313.558L255.867 313.505C255.809 309.106 254.401 305.378 251.531 302.508L248.703 305.336ZM251.867 313.531C251.867 316.968 250.787 319.643 248.703 321.726L251.531 324.555C254.448 321.639 255.867 317.907 255.867 313.531H251.867ZM248.691 321.739C246.167 324.306 242.308 325.75 236.758 325.75V329.75C242.978 329.75 248.026 328.121 251.543 324.543L248.691 321.739ZM236.758 325.75H225.117V329.75H236.758V325.75ZM223.117 327.75V341.422H227.117V327.75H223.117ZM223.117 341.422C223.117 341.651 223.057 341.826 222.844 342.039L225.672 344.867C226.604 343.935 227.117 342.755 227.117 341.422H223.117ZM222.844 342.039C222.658 342.225 222.468 342.312 222.148 342.312V346.312C223.495 346.312 224.712 345.827 225.672 344.867L222.844 342.039ZM222.148 342.312C221.919 342.312 221.745 342.252 221.531 342.039L218.703 344.867C219.635 345.8 220.815 346.312 222.148 346.312V342.312ZM221.531 342.039C221.318 341.826 221.258 341.651 221.258 341.422H217.258C217.258 342.755 217.771 343.935 218.703 344.867L221.531 342.039ZM221.258 341.422V302.281H217.258V341.422H221.258ZM221.258 302.281C221.258 302.052 221.318 301.878 221.531 301.664L218.703 298.836C217.771 299.768 217.258 300.948 217.258 302.281H221.258ZM221.591 301.601C221.822 301.35 221.979 301.312 222.148 301.312V297.312C220.755 297.312 219.558 297.9 218.643 298.899L221.591 301.601ZM222.148 301.312H236.758V297.312H222.148V301.312ZM236.211 324.281C240.803 324.281 244.597 323.308 247.118 320.921L244.367 318.017C242.929 319.379 240.369 320.281 236.211 320.281V324.281ZM247.107 320.931C249.157 319.017 250.069 316.452 250.007 313.49L246.008 313.573C246.051 315.61 245.452 317.003 244.378 318.007L247.107 320.931ZM250.008 313.531C250.008 311.209 249.422 309.115 248.122 307.387C246.828 305.669 244.959 304.485 242.695 303.741L241.445 307.54C243.14 308.098 244.24 308.881 244.925 309.792C245.605 310.695 246.008 311.896 246.008 313.531H250.008ZM242.703 303.743C240.889 303.139 238.722 302.837 236.255 302.782L236.167 306.781C238.387 306.83 240.127 307.101 241.438 307.538L242.703 303.743ZM236.211 302.781H225.117V306.781H236.211V302.781ZM223.117 304.781V322.281H227.117V304.781H223.117ZM225.117 324.281H236.211V320.281H225.117V324.281ZM292.93 303.922L291.491 305.311L291.503 305.324L291.515 305.336L292.93 303.922ZM296.68 313.531H298.68V313.518L298.68 313.505L296.68 313.531ZM292.93 323.141L291.515 321.726L291.509 321.732L291.503 321.739L292.93 323.141ZM267.93 327.75V325.75H265.93V327.75H267.93ZM262.93 300.25L264.344 301.664L264.375 301.633L264.404 301.601L262.93 300.25ZM288.555 319.469L287.19 318.007L287.185 318.012L287.179 318.017L288.555 319.469ZM290.82 313.531H288.82V313.552L288.821 313.573L290.82 313.531ZM284.883 305.641L284.25 307.538L284.258 307.54L284.883 305.641ZM279.023 304.781L279.068 302.782L279.046 302.781H279.023V304.781ZM267.93 304.781V302.781H265.93V304.781H267.93ZM267.93 322.281H265.93V324.281H267.93V322.281ZM279.57 301.312C285.182 301.312 289.027 302.761 291.491 305.311L294.368 302.532C290.895 298.937 285.834 297.312 279.57 297.312V301.312ZM291.515 305.336C293.541 307.362 294.634 310.04 294.68 313.558L298.68 313.505C298.622 309.106 297.214 305.378 294.344 302.508L291.515 305.336ZM294.68 313.531C294.68 316.968 293.599 319.643 291.515 321.726L294.344 324.555C297.26 321.639 298.68 317.907 298.68 313.531H294.68ZM291.503 321.739C288.98 324.306 285.121 325.75 279.57 325.75V329.75C285.791 329.75 290.838 328.121 294.356 324.543L291.503 321.739ZM279.57 325.75H267.93V329.75H279.57V325.75ZM265.93 327.75V341.422H269.93V327.75H265.93ZM265.93 341.422C265.93 341.651 265.869 341.826 265.656 342.039L268.485 344.867C269.417 343.935 269.93 342.755 269.93 341.422H265.93ZM265.656 342.039C265.47 342.225 265.281 342.312 264.961 342.312V346.312C266.308 346.312 267.525 345.827 268.485 344.867L265.656 342.039ZM264.961 342.312C264.732 342.312 264.557 342.252 264.344 342.039L261.515 344.867C262.448 345.8 263.628 346.312 264.961 346.312V342.312ZM264.344 342.039C264.131 341.826 264.07 341.651 264.07 341.422H260.07C260.07 342.755 260.583 343.935 261.515 344.867L264.344 342.039ZM264.07 341.422V302.281H260.07V341.422H264.07ZM264.07 302.281C264.07 302.052 264.131 301.878 264.344 301.664L261.515 298.836C260.583 299.768 260.07 300.948 260.07 302.281H264.07ZM264.404 301.601C264.634 301.35 264.792 301.312 264.961 301.312V297.312C263.568 297.312 262.371 297.9 261.455 298.899L264.404 301.601ZM264.961 301.312H279.57V297.312H264.961V301.312ZM279.023 324.281C283.615 324.281 287.41 323.308 289.93 320.921L287.179 318.017C285.741 319.379 283.182 320.281 279.023 320.281V324.281ZM289.919 320.931C291.969 319.017 292.882 316.452 292.82 313.49L288.821 313.573C288.863 315.61 288.265 317.003 287.19 318.007L289.919 320.931ZM292.82 313.531C292.82 311.209 292.234 309.115 290.934 307.387C289.641 305.669 287.772 304.485 285.508 303.741L284.258 307.54C285.952 308.098 287.052 308.881 287.738 309.792C288.417 310.695 288.82 311.896 288.82 313.531H292.82ZM285.515 303.743C283.701 303.139 281.534 302.837 279.068 302.782L278.979 306.781C281.2 306.83 282.939 307.101 284.25 307.538L285.515 303.743ZM279.023 302.781H267.93V306.781H279.023V302.781ZM265.93 304.781V322.281H269.93V304.781H265.93ZM267.93 324.281H279.023V320.281H267.93V324.281ZM332.773 300.484L334.422 301.617L334.444 301.585L334.464 301.552L332.773 300.484ZM337.617 303.688L339.244 304.851L339.25 304.843L339.256 304.834L337.617 303.688ZM322.305 325.094L320.678 323.93L320.305 324.452V325.094H322.305ZM317.305 343.453L315.89 344.867L315.921 344.898L315.953 344.927L317.305 343.453ZM316.445 325.094H318.445V324.452L318.072 323.93L316.445 325.094ZM301.133 303.688L299.418 304.716L299.459 304.786L299.506 304.851L301.133 303.688ZM301.367 299.859L299.887 298.514L299.852 298.553L299.819 298.593L301.367 299.859ZM306.055 300.484L304.404 301.614L304.406 301.617L306.055 300.484ZM319.414 319.938L317.765 321.07L319.414 323.47L321.063 321.07L319.414 319.938ZM334.464 301.552C334.827 300.978 335.041 301 335.117 301V297C333.319 297 331.97 298.012 331.082 299.416L334.464 301.552ZM335.117 301C335.71 301 335.86 301.158 335.903 301.205L338.863 298.514C337.864 297.415 336.503 297 335.117 297V301ZM335.903 301.205C336.112 301.434 336.164 301.614 336.164 301.812H340.164C340.164 300.553 339.696 299.43 338.863 298.514L335.903 301.205ZM336.164 301.812C336.164 302.194 336.075 302.404 335.979 302.541L339.256 304.834C339.889 303.93 340.164 302.89 340.164 301.812H336.164ZM335.991 302.524L320.678 323.93L323.931 326.257L339.244 304.851L335.991 302.524ZM320.305 325.094V341.422H324.305V325.094H320.305ZM320.305 341.422C320.305 341.651 320.244 341.826 320.031 342.039L322.86 344.867C323.792 343.935 324.305 342.755 324.305 341.422H320.305ZM320.031 342.039C319.818 342.252 319.643 342.312 319.414 342.312V346.312C320.747 346.312 321.927 345.8 322.86 344.867L320.031 342.039ZM319.414 342.312C319.178 342.312 318.947 342.245 318.656 341.979L315.953 344.927C316.913 345.807 318.088 346.312 319.414 346.312V342.312ZM318.719 342.039C318.506 341.826 318.445 341.651 318.445 341.422H314.445C314.445 342.755 314.958 343.935 315.89 344.867L318.719 342.039ZM318.445 341.422V325.094H314.445V341.422H318.445ZM318.072 323.93L302.759 302.524L299.506 304.851L314.819 326.257L318.072 323.93ZM302.848 302.659C302.756 302.506 302.664 302.252 302.664 301.812H298.664C298.664 302.831 298.885 303.828 299.418 304.716L302.848 302.659ZM302.664 301.812C302.664 301.553 302.734 301.347 302.915 301.126L299.819 298.593C299.063 299.517 298.664 300.614 298.664 301.812H302.664ZM302.847 301.205C302.91 301.135 303.052 301 303.555 301V297C302.182 297 300.866 297.438 299.887 298.514L302.847 301.205ZM303.555 301C303.739 301 304.01 301.038 304.404 301.614L307.705 299.355C306.745 297.952 305.349 297 303.555 297V301ZM304.406 301.617L317.765 321.07L321.063 318.805L307.703 299.352L304.406 301.617ZM321.063 321.07L334.422 301.617L331.125 299.352L317.765 318.805L321.063 321.07Z" fill="white" mask="url(#path-3-outside-1_22_160)"/>
</mask>
<g mask="url(#mask0_22_160)">
<rect x="49" y="290" width="291" height="76" fill="url(#paint0_linear_22_160)"/>
</g>
<path d="M200.484 261.5C200.484 261.5 161.005 262.209 105.289 253.791C-10.9407 236.23 -11.2516 76 105.289 76C196.357 76 200.305 163.444 200.476 171.025C200.428 163.444 202.056 76 302.505 76C400.505 76 420.505 237 297.505 253.791C241.987 261.369 200.484 261.5 200.484 261.5Z" fill="#1AD14D"/>
<path d="M200.484 261.5C200.484 261.5 161.005 262.209 105.289 253.791C-10.9407 236.23 -11.2516 76 105.289 76C200.484 76 200.484 171.548 200.484 171.548C200.484 171.548 197.505 76 302.505 76C400.505 76 420.505 237 297.505 253.791C241.987 261.369 200.484 261.5 200.484 261.5Z" stroke="black" stroke-width="20"/>
<circle cx="292.505" cy="164" r="42" fill="white"/>
<ellipse cx="287.005" cy="164.5" rx="13.5" ry="25.5" transform="rotate(5 287.005 164.5)" fill="black"/>
<circle cx="104.505" cy="164" r="42" fill="white"/>
<ellipse cx="115.005" cy="164.5" rx="13.5" ry="25.5" transform="rotate(-5 115.005 164.5)" fill="black"/>
<path d="M194.776 196.5C194.776 196.5 248.761 243.015 248.761 165.4M297.529 206.739C357.747 206.739 357.231 119.02 297.529 119.02C248.761 119.02 248.761 165.4 248.761 165.4M297.529 206.739C297.529 206.739 248.761 207.747 248.761 165.4M297.529 206.739C279.087 206.739 248.761 196.656 248.761 165.4" stroke="black" stroke-width="20"/>
<path d="M207.502 196.714C207.502 196.714 152.243 241.362 152.243 165.4M103.476 206.739C43.2568 206.739 43.7733 119.02 103.476 119.02C152.243 119.02 152.243 165.4 152.243 165.4M103.476 206.739C103.476 206.739 152.243 207.747 152.243 165.4M103.476 206.739C121.918 206.739 152.243 196.656 152.243 165.4" stroke="black" stroke-width="20"/>
</g>
<defs>
<linearGradient id="paint0_linear_22_160" x1="225.5" y1="293.5" x2="227" y2="344" gradientUnits="userSpaceOnUse">
<stop stop-color="#33FF00"/>
<stop offset="0.0001" stop-color="#ACFF97"/>
<stop offset="0.40625" stop-color="#53FC2F"/>
<stop offset="0.848958" stop-color="#35C71A"/>
<stop offset="1" stop-color="#31BE1A"/>
</linearGradient>
<clipPath id="clip0_22_160">
<rect width="400" height="400" fill="white"/>
</clipPath>
</defs>
</svg>
