<svg width="386" height="206" viewBox="0 0 386 206" fill="none" xmlns="http://www.w3.org/2000/svg">
<path d="M192.979 195.5C192.979 195.5 153.5 196.209 97.7838 187.791C-18.4456 170.23 -18.7565 10 97.7838 10C188.853 10 192.8 97.4438 192.971 105.025C192.924 97.4437 194.551 10 295 10C393 10 413 171 290 187.791C234.482 195.369 192.979 195.5 192.979 195.5Z" fill="#1AD14D"/>
<path d="M192.979 195.5C192.979 195.5 153.5 196.209 97.7838 187.791C-18.4456 170.23 -18.7565 10 97.7838 10C192.979 10 192.979 105.548 192.979 105.548C192.979 105.548 190 10 295 10C393 10 413 171 290 187.791C234.482 195.369 192.979 195.5 192.979 195.5Z" stroke="black" stroke-width="20"/>
<circle cx="285" cy="98" r="42" fill="white"/>
<ellipse cx="279.5" cy="98.5" rx="13.5" ry="25.5" transform="rotate(5 279.5 98.5)" fill="black"/>
<circle cx="97.0001" cy="98" r="42" fill="white"/>
<ellipse cx="107.5" cy="98.4998" rx="13.5" ry="25.5" transform="rotate(-5 107.5 98.4998)" fill="black"/>
<path d="M193.5 162.5C173.5 162.5 172 143 172 143L193.5 140L213.5 143C213.5 143 213.5 162.5 193.5 162.5Z" fill="#FF7E7E" stroke="black" stroke-width="12"/>
<path d="M187.271 130.5C187.271 130.5 241.256 177.015 241.256 99.3997M290.024 140.739C350.243 140.739 349.726 53.0195 290.024 53.0195C241.256 53.0195 241.256 99.3997 241.256 99.3997M290.024 140.739C290.024 140.739 241.256 141.747 241.256 99.3997M290.024 140.739C271.582 140.739 241.256 130.656 241.256 99.3997" stroke="black" stroke-width="20"/>
<path d="M199.997 130.714C199.997 130.714 144.738 175.362 144.738 99.3997M95.9709 140.739C35.7519 140.739 36.2684 53.0195 95.9709 53.0195C144.738 53.0195 144.738 99.3997 144.738 99.3997M95.9709 140.739C95.9709 140.739 144.738 141.747 144.738 99.3997M95.9709 140.739C114.413 140.739 144.738 130.656 144.738 99.3997" stroke="black" stroke-width="20"/>
</svg>
