<svg width="386" height="206" viewBox="0 0 386 206" fill="none" xmlns="http://www.w3.org/2000/svg">
<path d="M192.979 195.5C192.979 195.5 153.5 196.209 97.7837 187.791C-18.4456 170.23 -18.7566 10 97.7837 10C188.853 10 192.8 97.4438 192.971 105.025C192.924 97.4437 194.551 10 295 10C393 10 413 171 290 187.791C234.482 195.369 192.979 195.5 192.979 195.5Z" fill="#1AD14D"/>
<path d="M192.979 195.5C192.979 195.5 153.5 196.209 97.7837 187.791C-18.4456 170.23 -18.7566 10 97.7837 10C192.979 10 192.979 105.548 192.979 105.548C192.979 105.548 190 10 295 10C393 10 413 171 290 187.791C234.482 195.369 192.979 195.5 192.979 195.5Z" stroke="black" stroke-width="20"/>
<path d="M199.997 130.714C199.997 130.714 144.738 175.361 144.738 99.3992M96.9999 107.5C45 126.714 41.5071 92.856 93.4999 95.4997C123 96.9997 144.738 99.3992 144.738 99.3992M96.9999 107.5C110 105.958 109 106.573 144.738 99.3992M96.9999 107.5C116 105.5 134 107 144.738 99.3992" stroke="black" stroke-width="20"/>
<path d="M187.417 130.714C187.417 130.714 242.676 175.361 242.676 99.3992M290.414 107.5C342.414 126.714 345.907 92.856 293.914 95.4997C264.414 96.9997 242.676 99.3992 242.676 99.3992M290.414 107.5C277.414 105.958 278.414 106.573 242.676 99.3992M290.414 107.5C271.414 105.5 253.414 107 242.676 99.3992" stroke="black" stroke-width="20"/>
</svg>
